<mxfile host="Electron" agent="Mozilla/5.0 (Windows NT 10.0; Win64; x64) AppleWebKit/537.36 (KHTML, like Gecko) draw.io/24.7.17 Chrome/128.0.6613.36 Electron/32.0.1 Safari/537.36" version="24.7.17">
  <diagram name="Page-1" id="54wzkR4W28TwC2otc2zt">
    <mxGraphModel dx="1036" dy="654" grid="1" gridSize="10" guides="1" tooltips="1" connect="1" arrows="1" fold="1" page="1" pageScale="1" pageWidth="850" pageHeight="1100" math="0" shadow="0">
      <root>
        <mxCell id="0" />
        <mxCell id="1" parent="0" />
        <mxCell id="ej-sO1uFJ8pexVQ4nJsj-7" value="" style="edgeStyle=orthogonalEdgeStyle;rounded=0;orthogonalLoop=1;jettySize=auto;html=1;" edge="1" parent="1" source="ej-sO1uFJ8pexVQ4nJsj-1" target="ej-sO1uFJ8pexVQ4nJsj-2">
          <mxGeometry relative="1" as="geometry" />
        </mxCell>
        <mxCell id="ej-sO1uFJ8pexVQ4nJsj-1" value="Bắt đàu" style="rounded=1;whiteSpace=wrap;html=1;" vertex="1" parent="1">
          <mxGeometry x="330" y="30" width="120" height="60" as="geometry" />
        </mxCell>
        <mxCell id="ej-sO1uFJ8pexVQ4nJsj-8" value="" style="edgeStyle=orthogonalEdgeStyle;rounded=0;orthogonalLoop=1;jettySize=auto;html=1;" edge="1" parent="1" source="ej-sO1uFJ8pexVQ4nJsj-2" target="ej-sO1uFJ8pexVQ4nJsj-3">
          <mxGeometry relative="1" as="geometry" />
        </mxCell>
        <mxCell id="ej-sO1uFJ8pexVQ4nJsj-2" value="Nhập số liệu" style="shape=process;whiteSpace=wrap;html=1;backgroundOutline=1;" vertex="1" parent="1">
          <mxGeometry x="330" y="150" width="120" height="60" as="geometry" />
        </mxCell>
        <mxCell id="ej-sO1uFJ8pexVQ4nJsj-9" value="" style="edgeStyle=orthogonalEdgeStyle;rounded=0;orthogonalLoop=1;jettySize=auto;html=1;" edge="1" parent="1" source="ej-sO1uFJ8pexVQ4nJsj-3" target="ej-sO1uFJ8pexVQ4nJsj-4">
          <mxGeometry relative="1" as="geometry" />
        </mxCell>
        <mxCell id="ej-sO1uFJ8pexVQ4nJsj-3" value="Tìm giá trị lớn nhát" style="shape=process;whiteSpace=wrap;html=1;backgroundOutline=1;" vertex="1" parent="1">
          <mxGeometry x="320" y="270" width="140" height="60" as="geometry" />
        </mxCell>
        <mxCell id="ej-sO1uFJ8pexVQ4nJsj-10" value="" style="edgeStyle=orthogonalEdgeStyle;rounded=0;orthogonalLoop=1;jettySize=auto;html=1;" edge="1" parent="1" source="ej-sO1uFJ8pexVQ4nJsj-4" target="ej-sO1uFJ8pexVQ4nJsj-5">
          <mxGeometry relative="1" as="geometry" />
        </mxCell>
        <mxCell id="ej-sO1uFJ8pexVQ4nJsj-4" value="In kết quả" style="shape=process;whiteSpace=wrap;html=1;backgroundOutline=1;" vertex="1" parent="1">
          <mxGeometry x="330" y="400" width="120" height="60" as="geometry" />
        </mxCell>
        <mxCell id="ej-sO1uFJ8pexVQ4nJsj-5" value="Kết thúc" style="rounded=1;whiteSpace=wrap;html=1;" vertex="1" parent="1">
          <mxGeometry x="330" y="530" width="120" height="60" as="geometry" />
        </mxCell>
      </root>
    </mxGraphModel>
  </diagram>
</mxfile>
